<?xml version="1.0" encoding="utf-8"?>
<!-- Svg Vector Icons : http://www.onlinewebfonts.com/icon -->
<!DOCTYPE svg PUBLIC "-//W3C//DTD SVG 1.1//EN" "http://www.w3.org/Graphics/SVG/1.1/DTD/svg11.dtd">
<svg version="1.1"
    xmlns="http://www.w3.org/2000/svg"
    xmlns:xlink="http://www.w3.org/1999/xlink" x="0px" y="0px" width="1000px" height="1000px" viewBox="0 0 1000 1000" enable-background="new 0 0 1000 1000" xml:space="preserve">
    <metadata> Svg Vector Icons : http://www.onlinewebfonts.com/icon </metadata>
    <style>
      path {
        fill: #000000;
      }
    </style>
    <path d="M980,438.8h-56C894.2,231.2,716.2,71.5,500.3,71.5c-166.8,0-310.9,95.5-381.8,234.6l115,44.2C286,257,385.7,193.9,500.4,193.9c148.1,0,271.6,105.2,299.9,244.9h-73.8c-9.5,9.2-18.5,14.9-5,30.8l114.2,116.1c9.5,9.2,24.8,9.2,34.2,0l115-116.1C994.4,460.4,989.4,448,980,438.8z M500.3,806.1c-137,0-253-90.1-292-214.2h67c9.5-9.2,14.4-21.6,5-30.8L165.3,444.9c-9.5-9.2-24.8-9.2-34.2,0L16.9,561c-13.6,15.9-4.5,21.6,5,30.8H78c33.2,181.6,209.4,336.7,422.4,336.7c155.9,0,291.9-83.5,366.9-208l-115.8-45.7C696.1,754.1,604.3,806.1,500.3,806.1z"/>
</svg>