<?xml version="1.0" encoding="utf-8"?>
<!-- Svg Vector Icons : http://www.onlinewebfonts.com/icon -->
<!DOCTYPE svg PUBLIC "-//W3C//DTD SVG 1.1//EN" "http://www.w3.org/Graphics/SVG/1.1/DTD/svg11.dtd">
<svg version="1.1"
    xmlns="http://www.w3.org/2000/svg"
    xmlns:xlink="http://www.w3.org/1999/xlink" x="0px" y="0px" width="1000px" height="1000px" viewBox="0 0 1000 1000" enable-background="new 0 0 1000 1000" xml:space="preserve">
    <metadata> Svg Vector Icons : http://www.onlinewebfonts.com/icon </metadata>
    <style>
      path {
        fill: #000000;
      }
    </style>
    <g transform="translate(0.000000,511.000000) scale(0.100000,-0.100000)">
        <path d="M4509.6,4987.3C3405.7,4880,2332.5,4368.9,1535.2,3574.2C53.1,2089.6-322.5-166.8,602.5-2050c582.6-1185.7,1599.6-2072.4,2851.7-2488.9c1009.3-334.7,2082.6-334.7,3091.9,0c2568.1,853.5,3955.6,3626,3102.2,6194.1c-416.5,1252.1-1303.2,2269.1-2488.9,2851.7C6336.6,4910.7,5424.4,5074.2,4509.6,4987.3z M5695.3,4174.7c385.8-66.4,784.5-199.3,1157.6-385.9c314.3-155.9,787-475.3,799.8-539.2c2.6-20.4-1293-1333.9-2882.4-2923.3C2442.3-2001.5,1875.1-2556,1844.4-2535.5c-84.3,53.7-378.2,498.3-523.8,792.1c-189.1,378.2-319.4,774.3-388.4,1175.4c-43.4,263.2-48.5,378.2-38.3,792.1c20.4,700.2,125.2,1132,426.7,1737.6c201.9,403.7,437,730.8,766.6,1060.5c626.1,626.1,1413.1,1027.2,2287,1162.7C4703.8,4238.6,5355.4,4230.9,5695.3,4174.7z M8386,2467.8c288.7-408.9,562.2-1050.2,669.5-1584.3c63.9-322,63.9-1226.6,0-1548.5c-337.3-1666.1-1615-2941.2-3281-3281.1c-347.5-71.5-1257.2-63.9-1599.6,12.8c-539.2,120.1-1027.2,324.5-1454,608.1c-135.4,89.5-255.5,176.3-265.7,191.7c-15.3,28.1,5729,5798,5769.9,5798C8235.2,2664.5,8306.8,2575.1,8386,2467.8z"/>
    </g>
</svg>